Coordinates
version=1
nRows=26
nColumns=24
inDegrees=yes

Units are S.I. units (second, meters, Newtons, ...)
Angles are in degrees.

endheader
time	pelvis_tilt	pelvis_list	pelvis_rotation	pelvis_tx	pelvis_ty	pelvis_tz	hip_flexion_r	hip_adduction_r	hip_rotation_r	knee_angle_r	ankle_angle_r	subtalar_angle_r	mtp_angle_r	hip_flexion_l	hip_adduction_l	hip_rotation_l	knee_angle_l	ankle_angle_l	subtalar_angle_l	mtp_angle_l	lumbar_extension	lumbar_bending	lumbar_rotation
      2.06500000	     -5.93331660	      3.54487478	    359.09562415	     -0.34137820	      1.38783273	     -1.06073532	     29.24345629	     -2.37377719	      2.31001106	    -21.16396179	     -2.50869399	     -6.77495724	     13.83484609	      3.33304828	      8.13717151	      7.23440150	     -8.69211135	      3.84954903	     -6.07945723	     15.34895435	     -8.43991733	      0.62634015	      9.93413637
      2.07000000	     -6.02506424	      3.65765163	    359.28544464	     -0.33626564	      1.38705917	     -1.06055294	     29.08591634	     -2.59985288	      2.33658974	    -19.11897195	     -3.15867617	     -6.88450007	     13.90398896	      3.06340411	      8.25976051	      7.46932829	     -8.62468632	      4.09413697	     -6.05454651	     15.16517690	     -8.36547229	      0.50496966	      9.76709486
      2.07500000	     -6.10984110	      3.75854300	    359.45666558	     -0.33109470	      1.38626815	     -1.06035399	     28.89017595	     -2.80665259	      2.41296654	    -17.05456558	     -3.77249747	     -6.97412832	     14.13075605	      2.77734201	      8.36598637	      7.68464809	     -8.55089877	      4.35721107	     -6.01598142	     14.91714070	     -8.29069390	      0.40409247	      9.62560953
      2.08000000	     -6.19904310	      3.88154947	    359.65820669	     -0.32595631	      1.38541939	     -1.06018077	     28.69128473	     -3.05551087	      2.45362733	    -15.01755476	     -4.35672453	     -7.02643961	     14.28741645	      2.51026813	      8.49968760	      7.94468188	     -8.50394882	      4.60793164	     -6.01123036	     14.72098451	     -8.22120983	      0.27212730	      9.45365932
      2.08500000	     -6.27933985	      4.00355111	    359.85483756	     -0.32076384	      1.38454783	     -1.06000949	     28.45949969	     -3.30470710	      2.50969521	    -12.98680235	     -4.90487716	     -7.05187732	     14.53786799	      2.22615744	      8.63143876	      8.20999267	     -8.45286236	      4.85843312	     -6.02362170	     14.48299023	     -8.15456011	      0.14866891	      9.29314686
      2.09000000	     -6.37603101	      4.12378891	    360.04891633	     -0.31550095	      1.38362016	     -1.05984833	     28.23060992	     -3.55445785	      2.56324221	    -10.98547536	     -5.42317723	     -7.04787117	     14.89697030	      1.95715063	      8.76099346	      8.47251021	     -8.41029650	      5.12458420	     -6.02659226	     14.19904499	     -8.05595978	      0.03410975	      9.14542286
      2.09500000	     -6.51100579	      4.27019235	    360.27701475	     -0.31022156	      1.38258503	     -1.05970841	     28.05258834	     -3.84586043	      2.56571296	     -9.08021495	     -5.81543618	     -6.94181528	     14.95436000	      1.73877219	      8.92051867	      8.79326851	     -8.38785404	      5.39080387	     -6.07332381	     14.10452351	     -7.90120130	     -0.12980208	      9.02984208
      2.10000000	     -6.56357416	      4.42286267	    360.48839026	     -0.30494093	      1.38161678	     -1.05954136	     27.77861972	     -4.13895269	      2.56592823	     -7.21568945	     -6.27151374	     -6.86596114	     15.42093895	      1.42127085	      9.08480770	      9.08968082	     -8.35781549	      5.61334006	     -6.11594518	     13.70429223	     -7.87140280	     -0.26790078	      8.80318606
      2.10500000	     -6.65057194	      4.58385071	    360.71659064	     -0.29965772	      1.38054962	     -1.05936985	     27.57127950	     -4.44109303	      2.52083187	     -5.50017280	     -6.58401734	     -6.68364857	     15.53334413	      1.15308703	      9.25704621	      9.42095863	     -8.35283529	      5.86922387	     -6.19340547	     13.52901982	     -7.79671054	     -0.42380468	      8.58042627
      2.11000000	     -6.73326119	      4.73722693	    360.93906415	     -0.29431318	      1.37947438	     -1.05918857	     27.37605329	     -4.72792538	      2.42851200	     -3.91048789	     -6.81301632	     -6.43527529	     15.67474934	      0.87084409	      9.41766870	      9.75099404	     -8.34006078	      6.11148574	     -6.27063050	     13.30778069	     -7.71478604	     -0.57317540	      8.39824959
      2.11500000	     -6.82594931	      4.88562159	    361.15894009	     -0.28894102	      1.37837710	     -1.05898225	     27.22271044	     -4.99813410	      2.29763887	     -2.47802629	     -6.96351984	     -6.14746704	     15.76911391	      0.60153416	      9.56933295	     10.07598304	     -8.33719364	      6.36089406	     -6.33136926	     13.09366844	     -7.62167350	     -0.71517026	      8.21674063
      2.12000000	     -6.87599338	      5.01609434	    361.36737358	     -0.28354547	      1.37732392	     -1.05873881	     27.05298441	     -5.23336168	      2.12151611	     -1.20761704	     -7.02793571	     -5.82427727	     15.81110611	      0.27969513	      9.69431227	     10.39008224	     -8.32626646	      6.60968971	     -6.37878533	     12.89545605	     -7.57324172	     -0.83820035	      8.05805101
      2.12500000	     -6.91890810	      5.12277425	    361.56540843	     -0.27810537	      1.37628978	     -1.05844973	     26.90927220	     -5.42481495	      1.90768314	     -0.11295444	     -7.01799200	     -5.49272444	     15.79516271	     -0.05210205	      9.78639887	     10.68772738	     -8.31543900	      6.86496081	     -6.40701775	     12.71534618	     -7.52644019	     -0.93677196	      7.90529876
      2.13000000	     -6.94379476	      5.19413419	    361.75449117	     -0.27261903	      1.37530282	     -1.05814645	     26.77646076	     -5.56366504	      1.66383985	      0.80487954	     -6.93903405	     -5.18356901	     15.73512514	     -0.40592940	      9.83429988	     10.97584582	     -8.30324216	      7.12362087	     -6.41536029	     12.56809412	     -7.49317870	     -0.98760916	      7.78362995
      2.13500000	     -6.94308579	      5.24519255	    361.92796967	     -0.26710520	      1.37437112	     -1.05777732	     26.65695579	     -5.65812874	      1.38145994	      1.53076344	     -6.80562389	     -4.87625327	     15.62145634	     -0.79057297	      9.85049995	     11.22950979	     -8.28470532	      7.37738955	     -6.39235705	     12.41587290	     -7.49126755	     -1.01788032	      7.65686177
      2.14000000	     -6.92092424	      5.26022291	    362.08018097	     -0.26153000	      1.37349843	     -1.05736244	     26.54763181	     -5.69050889	      1.07618865	      2.07728979	     -6.65710724	     -4.64569355	     15.47051648	     -1.20657679	      9.81857443	     11.45712578	     -8.25100843	      7.63977750	     -6.34574960	     12.30619527	     -7.49821151	     -1.00653382	      7.56543570
      2.14500000	     -6.85167066	      5.25037211	    362.21960870	     -0.25593903	      1.37269450	     -1.05690695	     26.42166918	     -5.68068057	      0.77452812	      2.44060304	     -6.40957265	     -4.45459345	     15.26978272	     -1.67223677	      9.75050053	     11.65307585	     -8.21873371	      7.90014356	     -6.25244366	     12.18652207	     -7.56279140	     -0.96471791	      7.48478644
      2.15000000	     -6.79117535	      5.20780742	    362.34542363	     -0.25026644	      1.37192541	     -1.05641843	     26.33073437	     -5.61963271	      0.46992467	      2.64367656	     -6.20816093	     -4.37595872	     15.05260826	     -2.13403686	      9.64011814	     11.83711578	     -8.17623819	      8.15571607	     -6.13329903	     12.11697024	     -7.59943497	     -0.88546450	      7.42899144
      2.15500000	     -6.70143861	      5.13959124	    362.45861967	     -0.24456180	      1.37121013	     -1.05591010	     26.23730157	     -5.51819467	      0.16053019	      2.68363787	     -5.98924898	     -4.38903028	     14.83417747	     -2.62425654	      9.49685742	     11.98543948	     -8.13939354	      8.40495500	     -6.00455144	     12.06827933	     -7.66345217	     -0.77311899	      7.39046563
      2.16000000	     -6.66960539	      5.05805303	    362.57082581	     -0.23881704	      1.37044934	     -1.05541934	     26.23531272	     -5.39932113	     -0.13250045	      2.57652570	     -5.84722817	     -4.53493642	     14.71107529	     -3.03962594	      9.34396038	     12.16623029	     -8.12640894	      8.65179250	     -5.92576937	     12.08687490	     -7.64522012	     -0.65712456	      7.43802782
      2.16500000	     -6.48791778	      4.95016716	    362.64986795	     -0.23299855	      1.36987138	     -1.05484259	     26.07038394	     -5.22792538	     -0.43609277	      2.36574100	     -5.64479454	     -4.69461789	     14.42785420	     -3.64073647	      9.14003993	     12.22768955	     -8.06839577	      8.88965469	     -5.70252884	     12.04664602	     -7.80685640	     -0.47362493	      7.35489077
      2.17000000	     -6.40108722	      4.83723594	    362.73931509	     -0.22714611	      1.36921192	     -1.05431003	     26.03272867	     -5.05791089	     -0.72148209	      2.02730213	     -5.52855682	     -4.95251938	     14.18352991	     -4.11710146	      8.94107575	     12.32999156	     -8.05613580	      9.12867118	     -5.52229941	     12.03588568	     -7.84536694	     -0.29960215	      7.35798563
      2.17500000	     -6.30842056	      4.72295711	    362.81704368	     -0.22125087	      1.36856607	     -1.05377115	     25.99670023	     -4.88033367	     -0.98728680	      1.60340290	     -5.47193765	     -5.28961246	     13.97539808	     -4.59553348	      8.74047735	     12.42160881	     -8.05397068	      9.34721434	     -5.34546692	     12.04515656	     -7.88494863	     -0.11446770	      7.36558439
      2.18000000	     -6.25780342	      4.60464901	    362.91018863	     -0.21530790	      1.36789913	     -1.05329614	     26.00895959	     -4.71063078	     -1.28169210	      1.10696069	     -5.50373837	     -5.64559517	     13.83107208	     -5.01267241	      8.54344153	     12.53833780	     -8.08582918	      9.53593013	     -5.21456033	     12.08498867	     -7.86159574	      0.07610872	      7.41413052
      2.18500000	     -6.15514741	      4.48808916	    362.97935955	     -0.20933680	      1.36728249	     -1.05277011	     25.95851719	     -4.52960617	     -1.51904685	      0.57548358	     -5.61661158	     -6.12032686	     13.64365607	     -5.48442266	      8.34165175	     12.59330956	     -8.12007557	      9.72929860	     -5.01632598	     12.13348221	     -7.90481260	      0.27799364	      7.41151115
      2.19000000	     -6.10616157	      4.37634207	    363.04090446	     -0.20331924	      1.36662704	     -1.05223663	     25.96901084	     -4.35430801	     -1.72197998	     -0.00130899	     -5.80626365	     -6.60706614	     13.49046108	     -5.88075931	      8.15150855	     12.64432302	     -8.19201742	      9.90864056	     -4.83065188	     12.18886518	     -7.88076530	      0.46395754	      7.43480897
